<svg width="35" height="35" viewBox="0 0 35 35" fill="none" xmlns="http://www.w3.org/2000/svg">
<path d="M13.299 34.2915L13.299 0.708008C13.299 0.708008 7.70368 3.0689 5.25455 5.65716C2.06002 9.03316 0.130944 12.6532 0.00808507 17.323C-0.125122 22.3862 1.37773 26.3569 5.25455 30.0494C7.83334 32.5056 13.299 34.2915 13.299 34.2915Z" fill="#115385"/>
<path d="M21.693 0.707837L21.693 34.2916C21.693 34.2916 27.2893 32.641 29.7399 30.0541C32.9363 26.68 34.8583 23.0531 34.9839 18.3834C35.12 13.3203 33.0492 9.10685 29.7399 5.30348C27.3111 2.51212 21.693 0.707837 21.693 0.707837Z" fill="#E6A850"/>
<path d="M17.8396 0.0023218C16.0438 -0.0470701 13.299 0.707953 13.299 0.707953V34.2907C13.299 34.2907 16.0431 35 17.8396 35C19.5884 35 21.6931 34.2907 21.6931 34.2907V0.707953C21.6931 0.707953 19.3662 0.0443062 17.8396 0.0023218Z" fill="#D33A6E"/>
</svg>
