<svg width="164" height="30" viewBox="0 0 164 30" fill="none" xmlns="http://www.w3.org/2000/svg">
<path d="M19.5 10.5C16.1567 8.11792 15 1 15 1C15 1 13.8433 8.11792 10.5 10.5C7.44106 12.6794 1 12 1 12C1 12 6.77066 15.3347 8 19C9.25571 22.744 6.5 29 6.5 29C6.5 29 11.1488 24 15 24C18.8512 24 23.5 29 23.5 29C23.5 29 20.5113 22.3654 22 18.5C23.3407 15.0188 29 12 29 12C29 12 22.5589 12.6794 19.5 10.5Z" fill="#F1E593" stroke="#F8F9FB" stroke-width="2" stroke-linejoin="round"/>
<path d="M55.5 10.5C52.1567 8.11792 51 1 51 1C51 1 49.8433 8.11792 46.5 10.5C43.4411 12.6794 37 12 37 12C37 12 42.7707 15.3347 44 19C45.2557 22.744 42.5 29 42.5 29C42.5 29 47.1488 24 51 24C54.8512 24 59.5 29 59.5 29C59.5 29 56.5113 22.3654 58 18.5C59.3407 15.0188 65 12 65 12C65 12 58.5589 12.6794 55.5 10.5Z" fill="#F1E593" stroke="#F8F9FB" stroke-width="2" stroke-linejoin="round"/>
<path d="M156.893 12.1071C154.744 10.5758 154 6 154 6C154 6 153.256 10.5758 151.107 12.1071C149.141 13.5082 145 13.0714 145 13.0714C145 13.0714 148.71 15.2151 149.5 17.5714C150.307 19.9783 148.536 24 148.536 24C148.536 24 151.524 20.7857 154 20.7857C156.476 20.7857 159.464 24 159.464 24C159.464 24 157.543 19.7349 158.5 17.25C159.362 15.0121 163 13.0714 163 13.0714C163 13.0714 158.859 13.5082 156.893 12.1071Z" fill="#F8F9FB" stroke="black" stroke-linejoin="round"/>
<path d="M127.5 10.5C124.157 8.11792 123 1 123 1C123 1 121.843 8.11792 118.5 10.5C115.441 12.6794 109 12 109 12C109 12 114.771 15.3347 116 19C117.256 22.744 114.5 29 114.5 29C114.5 29 119.149 24 123 24C126.851 24 131.5 29 131.5 29C131.5 29 128.511 22.3654 130 18.5C131.341 15.0188 137 12 137 12C137 12 130.559 12.6794 127.5 10.5Z" fill="#F1E593" stroke="#F8F9FB" stroke-width="2" stroke-linejoin="round"/>
<path d="M91.5 10.5C88.1567 8.11792 87 1 87 1C87 1 85.8433 8.11792 82.5 10.5C79.4411 12.6794 73 12 73 12C73 12 78.7707 15.3347 80 19C81.2557 22.744 78.5 29 78.5 29C78.5 29 83.1488 24 87 24C90.8512 24 95.5 29 95.5 29C95.5 29 92.5113 22.3654 94 18.5C95.3407 15.0188 101 12 101 12C101 12 94.5589 12.6794 91.5 10.5Z" fill="#F1E593" stroke="#F8F9FB" stroke-width="2" stroke-linejoin="round"/>
</svg>
