<svg width="157" height="25" viewBox="0 0 157 25" fill="none" xmlns="http://www.w3.org/2000/svg">
<path d="M44.3669 22.237C46.7058 24.0448 49.4279 25 52.2383 25C56.354 25 60.1255 23.0742 62.8591 19.5778C65.4748 16.2313 66.9137 11.7348 66.8422 7.17164C67.8337 6.13822 69 4.16499 69 2.24175C69 1.50451 68.3432 1.03653 67.8106 1.4122C66.879 2.07892 66.0295 2.25329 65.1559 1.95455C63.3717 -0.163568 60.716 -0.609758 58.4782 0.859591C56.5224 2.14175 55.4351 4.48809 55.533 7.0524C52.2288 6.56133 49.1763 4.54322 47.0479 1.40707C46.6985 0.895491 46.0353 0.955753 45.7574 1.53529C44.7322 3.67392 44.7427 6.15233 45.6343 8.15377C45.2101 8.2448 44.948 8.67945 44.948 9.15C44.948 11.1617 45.6911 13.0106 46.8879 14.2722C46.6648 14.5338 46.5911 14.9223 46.6858 15.2684C47.2121 17.1942 48.4037 18.6995 49.8931 19.4534C48.2732 20.3958 46.4816 20.7099 44.8869 20.4714C44.0617 20.3355 43.6543 21.6869 44.3669 22.237V22.237ZM52.4541 19.7829C53.0446 19.2303 52.7309 18.0789 51.9899 18.0597C50.6847 18.0264 49.4963 17.243 48.7563 16.0108C49.1131 15.9826 49.4826 15.9159 49.8342 15.8005C50.6352 15.5364 50.5973 14.1286 49.7836 13.9299C48.3068 13.5683 47.1479 12.2579 46.7132 10.5706C47.11 10.6899 47.5142 10.7565 47.9174 10.7655C48.7163 10.7706 49.0184 9.52311 48.3668 9.00127C46.8985 7.82297 46.2722 5.74204 46.6869 3.78547C49.251 6.94983 52.7299 8.85639 56.4098 9.07179C56.9371 9.11154 57.3329 8.50764 57.2171 7.89606C56.7172 5.2561 57.9276 3.40595 59.2276 2.55332C60.5139 1.7071 62.5791 1.44297 64.1622 3.46621C64.6327 4.07011 66.2201 4.09319 67.0274 3.86368C66.6653 4.69452 66.1085 5.48304 65.5875 5.92667C65.3654 6.11643 65.238 6.43184 65.2517 6.76135C65.4211 10.9732 64.1328 15.1607 61.717 18.2495C59.2834 21.3612 55.9182 23.0755 52.2394 23.0755C50.7763 23.0755 49.3416 22.7857 47.9858 22.2267C49.6068 21.8446 51.1468 21.0087 52.4541 19.7829V19.7829Z" fill="#F8F9FB"/>
<path d="M100.5 0C93.5965 0 88 5.61994 88 12.5523C88 18.7699 92.5065 23.919 98.4153 24.9161V15.1711H95.3999V11.6642H98.4153V9.07843C98.4153 6.07814 100.24 4.44316 102.906 4.44316C104.183 4.44316 105.28 4.53869 105.598 4.58077V7.71686L103.749 7.71776C102.3 7.71776 102.021 8.40925 102.021 9.42432V11.6624H105.479L105.028 15.1693H102.021V25C108.205 24.2441 113 18.9638 113 12.5487C113 5.61994 107.403 0 100.5 0Z" fill="#F8F9FB"/>
<path d="M156.485 3.9119C156.197 2.38223 155.352 1.1764 154.282 0.76451C152.325 0 144.5 0 144.5 0C144.5 0 136.675 0 134.718 0.735525C133.668 1.14698 132.803 2.38245 132.515 3.9119C132 6.70581 132 12.5 132 12.5C132 12.5 132 18.3234 132.515 21.0881C132.803 22.6176 133.647 23.8234 134.718 24.2353C136.695 25 144.5 25 144.5 25C144.5 25 152.325 25 154.282 24.2645C155.353 23.8528 156.197 22.647 156.485 21.1175C157 18.3234 157 12.5294 157 12.5294C157 12.5294 157.02 6.70581 156.485 3.9119V3.9119ZM142.008 17.8529V7.14712L148.516 12.5L142.008 17.8529Z" fill="#F8F9FB"/>
<path d="M24.9365 7.35009C24.8779 6.02174 24.663 5.10851 24.3553 4.31719C24.0377 3.47721 23.5493 2.72519 22.9093 2.10003C22.284 1.46513 21.5269 0.971796 20.6965 0.65931C19.9004 0.351594 18.9918 0.136784 17.6632 0.0782168C16.3247 0.0146895 15.8997 0 12.5049 0C9.10999 0 8.68506 0.0146895 7.35149 0.0732567C6.02289 0.131824 5.10949 0.346825 4.3182 0.65435C3.47788 0.971796 2.72571 1.46017 2.10043 2.10003C1.46541 2.72519 0.972172 3.48217 0.659436 4.31242C0.351661 5.10851 0.13681 6.01678 0.0782317 7.34513C0.0146923 8.6834 0 9.10825 0 12.5025C0 15.8967 0.0146923 16.3216 0.0732707 17.6549C0.131849 18.9832 0.346891 19.8964 0.654666 20.6878C0.972172 21.5277 1.46541 22.2798 2.10043 22.9049C2.72571 23.5398 3.48284 24.0332 4.31324 24.3457C5.10949 24.6534 6.01793 24.8682 7.34672 24.9267C8.6801 24.9855 9.10522 25 12.5001 25C15.895 25 16.3199 24.9855 17.6535 24.9267C18.9821 24.8682 19.8955 24.6534 20.6868 24.3457C22.3672 23.6961 23.6958 22.3677 24.3455 20.6878C24.6531 19.8917 24.8682 18.9832 24.9267 17.6549C24.9853 16.3216 25 15.8967 25 12.5025C25 9.10825 24.995 8.6834 24.9365 7.35009ZM22.6847 17.5572C22.6309 18.7781 22.4258 19.4375 22.2548 19.877C21.8347 20.9661 20.9701 21.8305 19.8808 22.2506C19.4412 22.4215 18.777 22.6266 17.5605 22.6802C16.2417 22.739 15.8461 22.7535 12.5098 22.7535C9.17353 22.7535 8.77302 22.739 7.45892 22.6802C6.23774 22.6266 5.5783 22.4215 5.13868 22.2506C4.59659 22.0503 4.10316 21.7328 3.70265 21.3177C3.28745 20.9123 2.96994 20.4239 2.76959 19.882C2.59863 19.4424 2.39351 18.7781 2.33989 17.5622C2.28112 16.2435 2.26662 15.8479 2.26662 12.5122C2.26662 9.17655 2.28112 8.77612 2.33989 7.46246C2.39351 6.24151 2.59863 5.5822 2.76959 5.14266C2.96994 4.60048 3.28745 4.10734 3.70761 3.70671C4.11289 3.29159 4.60136 2.97415 5.14364 2.77403C5.58327 2.60309 6.24766 2.39801 7.46388 2.34422C8.78275 2.28565 9.17849 2.27096 12.5146 2.27096C15.8559 2.27096 16.2514 2.28565 17.5655 2.34422C18.7867 2.39801 19.4461 2.60309 19.8857 2.77403C20.4278 2.97415 20.9213 3.29159 21.3218 3.70671C21.737 4.11211 22.0545 4.60048 22.2548 5.14266C22.4258 5.5822 22.6309 6.24628 22.6847 7.46246C22.7433 8.78108 22.758 9.17655 22.758 12.5122C22.758 15.8479 22.7433 16.2386 22.6847 17.5572Z" fill="#F8F9FB"/>
<path d="M12.5048 6.08008C8.95863 6.08008 6.08142 8.95655 6.08142 12.5023C6.08142 16.048 8.95863 18.9244 12.5048 18.9244C16.0512 18.9244 18.9282 16.048 18.9282 12.5023C18.9282 8.95655 16.0512 6.08008 12.5048 6.08008ZM12.5048 16.6682C10.2042 16.6682 8.33812 14.8026 8.33812 12.5023C8.33812 10.2019 10.2042 8.33635 12.5048 8.33635C14.8056 8.33635 16.6715 10.2019 16.6715 12.5023C16.6715 14.8026 14.8056 16.6682 12.5048 16.6682V16.6682Z" fill="#F8F9FB"/>
<path d="M20.6819 5.82643C20.6819 6.65438 20.0105 7.32571 19.1822 7.32571C18.3541 7.32571 17.6826 6.65438 17.6826 5.82643C17.6826 4.99829 18.3541 4.32715 19.1822 4.32715C20.0105 4.32715 20.6819 4.99829 20.6819 5.82643V5.82643Z" fill="#F8F9FB"/>
</svg>
