<svg width="25" height="25" viewBox="0 0 25 25" fill="none" xmlns="http://www.w3.org/2000/svg">
<path d="M23.2282 2.0183C22.047 0.672577 20.4149 0 18.3313 0C17.7548 0 17.1663 0.116638 16.5665 0.3498C15.9665 0.583132 15.4084 0.897929 14.8926 1.29396C14.3763 1.68988 13.9325 2.06168 13.5602 2.40881C13.1883 2.75604 12.8348 3.12505 12.5 3.51555C12.1651 3.12505 11.8117 2.75604 11.4398 2.40881C11.0676 2.06168 10.6237 1.69011 10.1074 1.29396C9.59116 0.897758 9.03308 0.583189 8.43323 0.3498C7.83342 0.116695 7.24505 0 6.66846 0C4.58505 0 2.9529 0.672748 1.77176 2.0183C0.590618 3.36374 0 5.22995 0 7.61709C0 8.34411 0.109455 9.09308 0.327926 9.86308C0.546396 10.6335 0.795358 11.29 1.07432 11.8325C1.35324 12.3748 1.66953 12.9038 2.02297 13.4192C2.3764 13.9346 2.63469 14.2898 2.79726 14.4852C2.95998 14.6805 3.08791 14.8217 3.18089 14.9085L11.8861 24.7068C12.0536 24.9021 12.2582 25 12.5 25C12.7418 25 12.9465 24.9021 13.1139 24.7068L21.8053 14.9408C23.9352 12.4564 25 10.0149 25 7.61686C25 5.22955 24.4095 3.36351 23.2282 2.0183ZM20.5915 13.4111L12.5 22.5093L4.39472 13.3947C2.65546 11.366 1.78598 9.4398 1.78598 7.61686C1.78598 6.73809 1.88595 5.96215 2.08581 5.28958C2.28581 4.61689 2.54156 4.08232 2.85312 3.68629C3.16472 3.29014 3.54366 2.96759 3.99008 2.71784C4.43675 2.46832 4.87383 2.30009 5.30159 2.21333C5.72934 2.12667 6.185 2.08329 6.6687 2.08329C7.15226 2.08329 7.6732 2.22148 8.23122 2.49825C8.78915 2.77491 9.303 3.12214 9.77264 3.53984C10.2424 3.95782 10.6446 4.34838 10.9796 4.71175C11.3143 5.07546 11.5933 5.40889 11.8165 5.71275C11.9838 5.95155 12.2119 6.07092 12.5001 6.07092C12.7884 6.07092 13.0162 5.95155 13.1837 5.71275C13.4069 5.40889 13.686 5.07528 14.0208 4.71175C14.3556 4.34838 14.7579 3.95799 15.2274 3.53984C15.6971 3.12214 16.211 2.77491 16.7692 2.49825C17.327 2.22153 17.8481 2.08329 18.3317 2.08329C18.8153 2.08329 19.2709 2.12667 19.6988 2.21333C20.1267 2.30003 20.5638 2.46832 21.0103 2.71784C21.4568 2.96754 21.8357 3.29032 22.1472 3.68629C22.4588 4.08232 22.7146 4.61689 22.9146 5.28958C23.1143 5.96215 23.2143 6.73809 23.2143 7.61686C23.2142 9.4398 22.3401 11.3714 20.5915 13.4111Z" fill="black"/>
</svg>
